<svg xmlns="http://www.w3.org/2000/svg" viewBox="0 0 67.733324 67.733183"><g transform="translate(-31.354546,-102.90406)"><path fill="#fd6798" d="m 47.505609,167.74934 -0.588679,-2.88828 -2.222005,0.855 -2.222004,0.855 -0.299711,-0.83566 c -2.458957,-6.85608 0.295647,-15.76644 6.155041,-19.90979 l 0.846689,-0.59872 h -1.545225 c -8.521588,0 -20.961931,-12.77868 -14.465459,-14.85885 2.370585,-0.75906 2.364399,-0.74209 1.121564,-3.07657 l -1.084121,-2.03634 0.80482,-0.71584 c 4.502367,-4.00464 13.528379,-4.28966 19.40698,-0.61283 l 1.188037,0.74307 -0.306817,-1.42841 c -1.459079,-6.79285 1.133898,-15.6523 5.650657,-19.30668 1.816216,-1.46943 1.622039,-1.51651 3.459585,0.83878 l 1.54098,1.97515 1.71218,-2.00178 c 2.08532,-2.43803 2.0067,-2.43644 4.23697,-0.0862 4.58419,4.83091 6.61816,12.07429 5.20397,18.53247 -0.16623,0.75912 -0.20107,1.32377 -0.0774,1.25479 6.85532,-3.82513 14.07489,-4.14819 19.35781,-0.86621 1.87903,1.16735 1.88565,1.21499 0.52044,3.74446 -0.58523,1.08434 -1.009,2.00376 -0.9417,2.04317 0.0673,0.0394 1.04695,0.41096 2.17699,0.82569 2.40929,0.8842 2.46039,1.16356 0.85711,4.68625 -2.67147,5.86976 -9.1311,10.34581 -14.93056,10.34581 h -1.96736 l 1.64201,1.15295 c 4.64503,3.26158 7.21061,9.82651 6.3842,16.33616 -0.48503,3.82051 -0.55759,3.88668 -3.246,2.96011 l -2.184,-0.75272 -0.43711,2.70889 c -0.51204,3.17328 -0.65541,3.28017 -3.666,2.73349 -6.41474,-1.16481 -11.97654,-6.44528 -13.93804,-13.23304 l -0.241,-0.83402 -0.26526,0.90753 c -2.10212,7.19212 -9.4193,13.40475 -15.814244,13.42707 l -1.234604,0.004 z"/><path fill="#000000" d="m 69.709764,148.11518 c -0.29596,-0.31373 -0.53811,-0.94162 -0.53811,-1.3953 0,-0.84518 -2.29021,-4.7509 -3.423089,-5.83773 -0.77526,-0.74374 -3.49034,2.55855 -4.17739,5.0809 -0.51797,1.90163 -0.87632,2.35957 -1.84645,2.35957 -1.8526,0 -1.70351,-1.66819 0.34303,-3.8383 1.545,-1.63829 3.44063,-5.03496 3.11838,-5.58769 -0.30584,-0.5246 -5.51453,-2.19032 -6.84912,-2.19032 -2.066349,0 -3.075109,-2.1497 -1.390569,-2.96335 0.68977,-0.33316 1.005129,-0.28252 1.743669,0.28004 2.33989,1.78232 5.92371,3.06054 7.16513,2.55554 0.59092,-0.24037 0.59536,-6.47268 0.006,-9.75445 -0.22076,-1.23123 -0.15932,-1.39159 0.69038,-1.80198 1.17838,-0.56916 2.426729,0.71156 1.973099,2.02429 -0.1456,0.4214 -0.264749,2.72644 -0.264749,5.12229 v 4.35613 l 1.027319,-0.0488 c 1.79203,-0.085 4.86318,-1.21965 5.80442,-2.14437 0.9789,-0.96171 2.19909,-1.15667 2.85926,-0.45684 1.084299,1.14943 -0.20693,2.83148 -2.17357,2.83148 -1.12997,0 -5.91113,1.60058 -6.43267,2.15346 -0.45264,0.47983 1.69156,4.28313 3.4342,6.09146 1.58919,1.64908 1.77424,2.27491 0.9356,3.16394 -0.68303,0.72406 -1.3227,0.72406 -2.00572,0 z"/></g></svg>
